<svg width="175" height="38" viewBox="0 0 175 38" fill="none" xmlns="http://www.w3.org/2000/svg">
<g filter="url(#filter0_d)">
<path d="M14.25 20.7875C14.4583 20.7875 14.6333 20.8625 14.775 21.0125L16.2625 22.6C15.5292 23.5333 14.6167 24.2417 13.525 24.725C12.4417 25.2083 11.15 25.45 9.65 25.45C8.29167 25.45 7.07083 25.2208 5.9875 24.7625C4.90417 24.2958 3.98333 23.65 3.225 22.825C2.46667 22 1.88333 21.0208 1.475 19.8875C1.06667 18.7542 0.8625 17.5167 0.8625 16.175C0.8625 15.275 0.958333 14.4208 1.15 13.6125C1.35 12.7958 1.6375 12.0458 2.0125 11.3625C2.3875 10.6792 2.8375 10.0625 3.3625 9.5125C3.89583 8.9625 4.49583 8.49583 5.1625 8.1125C5.82917 7.72083 6.55417 7.425 7.3375 7.225C8.12917 7.01667 8.97083 6.9125 9.8625 6.9125C10.5292 6.9125 11.1583 6.97083 11.75 7.0875C12.35 7.20417 12.9083 7.36667 13.425 7.575C13.9417 7.78333 14.4167 8.0375 14.85 8.3375C15.2917 8.62917 15.6875 8.95 16.0375 9.3L14.775 11.025C14.7 11.1333 14.6042 11.2292 14.4875 11.3125C14.3708 11.3958 14.2125 11.4375 14.0125 11.4375C13.8125 11.4375 13.6083 11.3667 13.4 11.225C13.2 11.0833 12.95 10.925 12.65 10.75C12.3583 10.575 11.9875 10.4167 11.5375 10.275C11.0958 10.1333 10.5333 10.0625 9.85 10.0625C9.09167 10.0625 8.39583 10.2 7.7625 10.475C7.12917 10.75 6.58333 11.15 6.125 11.675C5.675 12.1917 5.325 12.8292 5.075 13.5875C4.825 14.3458 4.7 15.2083 4.7 16.175C4.7 17.15 4.83333 18.0208 5.1 18.7875C5.375 19.5458 5.74583 20.1875 6.2125 20.7125C6.6875 21.2375 7.2375 21.6375 7.8625 21.9125C8.49583 22.1792 9.17083 22.3125 9.8875 22.3125C10.3125 22.3125 10.6958 22.2917 11.0375 22.25C11.3875 22.2083 11.7083 22.1375 12 22.0375C12.3 21.9375 12.5792 21.8083 12.8375 21.65C13.1042 21.4917 13.3708 21.2917 13.6375 21.05C13.7292 20.975 13.825 20.9125 13.925 20.8625C14.025 20.8125 14.1333 20.7875 14.25 20.7875ZM35.5139 16.175C35.5139 17.5 35.2889 18.7292 34.8389 19.8625C34.3972 20.9958 33.768 21.975 32.9514 22.8C32.143 23.625 31.168 24.275 30.0264 24.75C28.8847 25.2167 27.618 25.45 26.2264 25.45C24.8347 25.45 23.568 25.2167 22.4264 24.75C21.2847 24.275 20.3055 23.625 19.4889 22.8C18.6722 21.975 18.0389 20.9958 17.5889 19.8625C17.1472 18.7292 16.9264 17.5 16.9264 16.175C16.9264 14.85 17.1472 13.625 17.5889 12.5C18.0389 11.3667 18.6722 10.3875 19.4889 9.5625C20.3055 8.7375 21.2847 8.09167 22.4264 7.625C23.568 7.15 24.8347 6.9125 26.2264 6.9125C27.618 6.9125 28.8847 7.15 30.0264 7.625C31.168 8.09167 32.143 8.74167 32.9514 9.575C33.768 10.4 34.3972 11.3792 34.8389 12.5125C35.2889 13.6375 35.5139 14.8583 35.5139 16.175ZM31.6764 16.175C31.6764 15.225 31.5514 14.375 31.3014 13.625C31.0514 12.8667 30.6889 12.225 30.2139 11.7C29.7472 11.1667 29.1764 10.7625 28.5014 10.4875C27.8347 10.2042 27.0764 10.0625 26.2264 10.0625C25.3764 10.0625 24.6139 10.2042 23.9389 10.4875C23.2639 10.7625 22.6889 11.1667 22.2139 11.7C21.7472 12.225 21.3889 12.8667 21.1389 13.625C20.8889 14.375 20.7639 15.225 20.7639 16.175C20.7639 17.1333 20.8889 17.9917 21.1389 18.75C21.3889 19.5 21.7472 20.1375 22.2139 20.6625C22.6889 21.1875 23.2639 21.5917 23.9389 21.875C24.6139 22.15 25.3764 22.2875 26.2264 22.2875C27.0764 22.2875 27.8347 22.15 28.5014 21.875C29.1764 21.5917 29.7472 21.1875 30.2139 20.6625C30.6889 20.1375 31.0514 19.5 31.3014 18.75C31.5514 17.9917 31.6764 17.1333 31.6764 16.175ZM43.9275 15.7C44.5359 15.7 45.0609 15.625 45.5025 15.475C45.9442 15.3167 46.3067 15.1042 46.59 14.8375C46.8734 14.5625 47.0817 14.2417 47.215 13.875C47.3484 13.5083 47.415 13.1083 47.415 12.675C47.415 11.8167 47.1275 11.15 46.5525 10.675C45.9859 10.2 45.1192 9.9625 43.9525 9.9625H42.0025V15.7H43.9275ZM52.715 25.25H49.3275C48.6942 25.25 48.2359 25.0083 47.9525 24.525L44.5025 18.9625C44.3609 18.7458 44.2025 18.5875 44.0275 18.4875C43.8609 18.3875 43.6109 18.3375 43.2775 18.3375H42.0025V25.25H38.2525V7.1125H43.9525C45.2192 7.1125 46.3025 7.24583 47.2025 7.5125C48.1025 7.77083 48.84 8.13333 49.415 8.6C49.99 9.06667 50.4109 9.625 50.6775 10.275C50.9442 10.9167 51.0775 11.625 51.0775 12.4C51.0775 13 50.99 13.5708 50.815 14.1125C50.6484 14.6458 50.4025 15.1333 50.0775 15.575C49.7525 16.0167 49.3525 16.4083 48.8775 16.75C48.4025 17.0917 47.8609 17.3667 47.2525 17.575C47.4942 17.7083 47.7192 17.8708 47.9275 18.0625C48.1359 18.2458 48.3234 18.4667 48.49 18.725L52.715 25.25ZM60.1629 15.7C60.7712 15.7 61.2962 15.625 61.7379 15.475C62.1796 15.3167 62.5421 15.1042 62.8254 14.8375C63.1087 14.5625 63.3171 14.2417 63.4504 13.875C63.5837 13.5083 63.6504 13.1083 63.6504 12.675C63.6504 11.8167 63.3629 11.15 62.7879 10.675C62.2212 10.2 61.3546 9.9625 60.1879 9.9625H58.2379V15.7H60.1629ZM68.9504 25.25H65.5629C64.9296 25.25 64.4712 25.0083 64.1879 24.525L60.7379 18.9625C60.5962 18.7458 60.4379 18.5875 60.2629 18.4875C60.0962 18.3875 59.8462 18.3375 59.5129 18.3375H58.2379V25.25H54.4879V7.1125H60.1879C61.4546 7.1125 62.5379 7.24583 63.4379 7.5125C64.3379 7.77083 65.0754 8.13333 65.6504 8.6C66.2254 9.06667 66.6462 9.625 66.9129 10.275C67.1796 10.9167 67.3129 11.625 67.3129 12.4C67.3129 13 67.2254 13.5708 67.0504 14.1125C66.8837 14.6458 66.6379 15.1333 66.3129 15.575C65.9879 16.0167 65.5879 16.4083 65.1129 16.75C64.6379 17.0917 64.0962 17.3667 63.4879 17.575C63.7296 17.7083 63.9546 17.8708 64.1629 18.0625C64.3712 18.2458 64.5587 18.4667 64.7254 18.725L68.9504 25.25ZM74.4982 10.05V14.7125H80.5482V17.55H74.4982V22.3125H82.2732V25.25H70.7232V7.1125H82.2732V10.05H74.4982ZM97.0625 20.7875C97.2708 20.7875 97.4458 20.8625 97.5875 21.0125L99.075 22.6C98.3417 23.5333 97.4292 24.2417 96.3375 24.725C95.2542 25.2083 93.9625 25.45 92.4625 25.45C91.1042 25.45 89.8833 25.2208 88.8 24.7625C87.7167 24.2958 86.7958 23.65 86.0375 22.825C85.2792 22 84.6958 21.0208 84.2875 19.8875C83.8792 18.7542 83.675 17.5167 83.675 16.175C83.675 15.275 83.7708 14.4208 83.9625 13.6125C84.1625 12.7958 84.45 12.0458 84.825 11.3625C85.2 10.6792 85.65 10.0625 86.175 9.5125C86.7083 8.9625 87.3083 8.49583 87.975 8.1125C88.6417 7.72083 89.3667 7.425 90.15 7.225C90.9417 7.01667 91.7833 6.9125 92.675 6.9125C93.3417 6.9125 93.9708 6.97083 94.5625 7.0875C95.1625 7.20417 95.7208 7.36667 96.2375 7.575C96.7542 7.78333 97.2292 8.0375 97.6625 8.3375C98.1042 8.62917 98.5 8.95 98.85 9.3L97.5875 11.025C97.5125 11.1333 97.4167 11.2292 97.3 11.3125C97.1833 11.3958 97.025 11.4375 96.825 11.4375C96.625 11.4375 96.4208 11.3667 96.2125 11.225C96.0125 11.0833 95.7625 10.925 95.4625 10.75C95.1708 10.575 94.8 10.4167 94.35 10.275C93.9083 10.1333 93.3458 10.0625 92.6625 10.0625C91.9042 10.0625 91.2083 10.2 90.575 10.475C89.9417 10.75 89.3958 11.15 88.9375 11.675C88.4875 12.1917 88.1375 12.8292 87.8875 13.5875C87.6375 14.3458 87.5125 15.2083 87.5125 16.175C87.5125 17.15 87.6458 18.0208 87.9125 18.7875C88.1875 19.5458 88.5583 20.1875 89.025 20.7125C89.5 21.2375 90.05 21.6375 90.675 21.9125C91.3083 22.1792 91.9833 22.3125 92.7 22.3125C93.125 22.3125 93.5083 22.2917 93.85 22.25C94.2 22.2083 94.5208 22.1375 94.8125 22.0375C95.1125 21.9375 95.3917 21.8083 95.65 21.65C95.9167 21.4917 96.1833 21.2917 96.45 21.05C96.5417 20.975 96.6375 20.9125 96.7375 20.8625C96.8375 20.8125 96.9458 20.7875 97.0625 20.7875ZM114.029 10.1375H108.729V25.25H104.967V10.1375H99.667V7.1125H114.029V10.1375Z" fill="white"/>
<path d="M129.959 7.43591V12.6935H121.153V16.3075H129.402V21.5649H121.153V28.375H115V7.43591H129.959Z" fill="black"/>
<path d="M152.202 7.43591L159.548 18.1894V7.43591H165.119V28.375H159.974L152.653 17.6821V28.375H147.059V7.43591H152.202Z" fill="black"/>
<path d="M134.951 28.3735H127.006L132.051 17.8158C132.143 17.8877 132.222 17.981 132.28 18.0893C132.554 18.4252 132.852 18.7351 133.17 19.0159C133.188 19.1744 133.237 19.3263 133.314 19.4604C133.391 19.5945 133.494 19.7075 133.616 19.7907C134.034 20.0489 134.613 20.3224 134.708 20.7933C134.788 21.2434 134.829 21.7012 134.829 22.1603C134.829 22.6312 134.708 24.5454 134.708 24.5454C134.708 24.5454 134.398 26.6721 134.438 26.824C134.518 27.0121 134.628 27.182 134.762 27.3252C134.762 27.3252 134.857 27.9026 134.951 28.3735Z" fill="black"/>
<path d="M140.468 13.7902H140.481L140.791 14.4435V14.4739C140.848 14.7895 140.884 15.1094 140.899 15.431C140.889 15.867 140.902 16.3032 140.94 16.7373C141.007 16.9652 140.778 17.1778 140.657 17.269C140.535 17.3601 140.279 17.6335 140.279 17.6335C140.224 17.634 140.169 17.6443 140.117 17.664C140.063 17.6791 139.564 17.8007 139.362 17.831C139.159 17.8614 139.294 17.9221 138.957 17.9829C138.62 18.0437 138.647 18.0133 138.606 18.0437C138.566 18.0741 138.485 18.1956 138.431 18.1804C138.377 18.1652 138.282 17.9829 138.202 17.9829C138.13 17.9744 138.058 17.9744 137.986 17.9829L138.053 17.4361C138.053 17.4361 138.175 17.0867 138.175 17.0563C138.175 17.0259 138.377 17.0867 138.471 16.7373C138.566 16.388 138.579 16.2664 138.471 16.2815H138.377C138.495 15.942 138.509 15.5679 138.417 15.2183C138.336 15.0154 138.208 14.8407 138.047 14.7124C137.886 14.5841 137.697 14.5071 137.5 14.4891C137.314 14.4856 137.129 14.5303 136.961 14.6199C136.793 14.7094 136.645 14.8414 136.529 15.0056C136.373 15.299 136.294 15.6359 136.3 15.9778C136.3 15.9778 136.192 15.9627 136.192 16.0386C136.219 16.1167 136.219 16.2034 136.192 16.2815C136.153 16.4425 136.162 16.6136 136.219 16.7678C136.232 16.7678 136.246 16.7829 136.246 16.874C136.26 17.056 136.296 17.235 136.353 17.4056C136.385 17.4598 136.422 17.5108 136.461 17.5577V17.831H136.421C136.421 17.831 136.151 17.8311 136.084 17.9223C136.016 18.0134 135.909 17.9375 135.841 17.9375C135.774 17.9375 135.585 17.8311 135.517 17.8767C135.477 17.907 135.086 17.7095 134.681 17.6183C134.33 17.5272 133.966 17.5272 133.872 17.4665C133.608 17.3019 133.36 17.1085 133.13 16.8892C133.172 16.4249 133.19 15.9582 133.184 15.4916V15.4614L137.23 7L140.009 12.8182L140.468 13.7902Z" fill="black"/>
<path d="M147.441 28.3735H140.036C139.942 28.0676 139.874 27.7522 139.834 27.4317C139.848 27.1613 139.807 26.8908 139.712 26.6417C139.521 25.6443 139.448 24.6226 139.496 23.6036C139.564 22.6162 139.442 22.2211 139.483 21.7654C139.477 21.4089 139.527 21.0541 139.631 20.7173C139.818 20.5183 140.021 20.3403 140.238 20.1856C140.238 20.1856 140.737 19.7907 140.751 19.7755C140.764 19.7603 141.155 19.6844 141.196 19.4565C141.212 19.2647 141.217 19.0718 141.209 18.8793C141.39 18.6546 141.557 18.4159 141.709 18.1652C141.79 17.9829 142.113 17.7398 142.127 17.6031C142.127 17.4968 142.1 17.36 142.1 17.2081L147.441 28.3735Z" fill="black"/>
<path d="M142.099 17.2082L140.791 14.474V14.4436L140.481 13.7903H140.467L140.009 12.8182C139.96 12.9532 139.951 13.102 139.982 13.2434C140.01 13.3765 140.07 13.4982 140.156 13.5948C140.241 13.6915 140.349 13.7591 140.467 13.7903H140.481C140.51 13.7929 140.538 13.8064 140.56 13.8283C140.582 13.8502 140.597 13.8796 140.602 13.9119C140.689 14.0772 140.753 14.2565 140.791 14.4436L142.099 17.2082Z" fill="black"/>
</g>
<defs>
<filter id="filter0_d" x="0.862503" y="6.91248" width="173.257" height="30.4625" filterUnits="userSpaceOnUse" color-interpolation-filters="sRGB">
<feFlood flood-opacity="0" result="BackgroundImageFix"/>
<feColorMatrix in="SourceAlpha" type="matrix" values="0 0 0 0 0 0 0 0 0 0 0 0 0 0 0 0 0 0 127 0"/>
<feOffset dx="5" dy="5"/>
<feGaussianBlur stdDeviation="2"/>
<feColorMatrix type="matrix" values="0 0 0 0 0 0 0 0 0 0 0 0 0 0 0 0 0 0 0.25 0"/>
<feBlend mode="normal" in2="BackgroundImageFix" result="effect1_dropShadow"/>
<feBlend mode="normal" in="SourceGraphic" in2="effect1_dropShadow" result="shape"/>
</filter>
</defs>
</svg>
