<svg width="83" height="96" viewBox="0 0 83 96" fill="none" xmlns="http://www.w3.org/2000/svg">
<g clip-path="url(#clip0)">
<path d="M81.0496 31.6567L75.8873 77.2772C75.6926 78.9942 75.0223 80.5974 73.9721 81.8573C72.9219 83.1172 71.5459 83.9691 70.0411 84.291L30.0561 92.8423C28.8844 93.096 27.6754 93.016 26.5379 92.6093C26.7292 92.2233 26.9932 91.8895 27.3115 91.6319C27.6298 91.3742 27.9944 91.1991 28.3794 91.1187L33.1756 90.0937C33.2169 90.0583 33.2629 90.0136 33.3091 89.9689C35.276 88.1613 42.5699 81.4568 45.1798 79.4239C47.7337 77.4393 49.7963 73.5876 51.8638 69.4844C52.0328 69.2038 52.1491 68.887 52.2058 68.5538C52.2625 68.2205 52.2583 67.8777 52.1935 67.5463C51.9377 66.8134 51.4739 66.1974 50.8747 65.7948L49.1501 64.4903L49.6611 63.4394C49.9999 62.7452 50.1444 61.9511 50.075 61.1622C50.0803 60.5655 49.9473 59.9778 49.6892 59.4573C49.4298 59.0557 49.0945 58.7241 48.7079 58.4869C48.3212 58.2497 47.8927 58.1127 47.4534 58.0856L45.7256 57.8545C45.7256 57.8545 46.4033 55.913 46.6605 55.326C46.8921 54.7864 46.994 54.1875 46.9561 53.5893C46.9182 52.991 46.7418 52.4146 46.4445 51.9178C44.748 48.2879 40.8785 50.0544 40.8785 50.0544L42.1776 48.3213C43.002 46.5492 42.359 45.5356 40.9839 43.4933C39.6089 41.451 37.5497 40.0849 35.0486 42.3639C33.2075 44.3136 31.2508 46.1192 29.1923 47.7679C27.3787 48.8077 25.3426 46.8473 24.3912 45.2634C23.8223 44.3884 23.4008 43.4022 23.1481 42.3546C22.9716 41.0746 22.9279 39.7758 23.0178 38.4844C23.0178 36.621 22.8793 33.1959 21.4416 31.9772C20.8105 31.5768 20.1152 31.3225 19.3962 31.229C18.6772 31.1356 17.9488 31.205 17.2537 31.4331C17.2389 31.4331 17.4186 33.5349 17.4351 33.766C17.4996 34.892 17.3114 36.0184 16.8879 37.0402C16.2919 38.9907 15.4991 40.8571 14.5253 42.6025C13.6167 43.7317 13.091 45.1878 13.0414 46.7131C12.8765 49.5977 13.2193 60.1654 12.9506 64.9227C12.8715 66.4749 12.5616 65.8954 12.56 65.9308L11.7652 65.8824L2.77811 48.4014C2.04175 46.8835 1.74929 45.1413 1.94268 43.4241C2.13608 41.7069 2.80533 40.1029 3.85466 38.842L31.7642 5.36011C32.8129 4.09942 34.1883 3.24681 35.6926 2.92506C37.1969 2.6033 38.7527 2.82884 40.1364 3.56925L76.9491 23.2023C78.3339 23.943 79.4761 25.1594 80.2125 26.6778C80.949 28.1962 81.242 29.9388 81.0496 31.6567Z" fill="black"/>
<path d="M26.0284 93.6884C26.0793 94.0097 26.2158 94.3057 26.4197 94.5369C26.6236 94.768 26.8852 94.9232 27.1694 94.9816C27.5646 95.0575 27.964 95.1016 28.3647 95.1137C29.0507 95.1506 29.7383 95.0943 30.4125 94.9461L70.3972 86.3948C72.2953 85.9931 74.0317 84.921 75.3561 83.3326C76.6805 81.7443 77.5246 79.7218 77.767 77.5565L82.9275 31.9269C83.1763 29.7612 82.8104 27.562 81.8823 25.6465C80.9543 23.7309 79.5122 22.1979 77.7638 21.2681L40.9676 1.62572C39.2227 0.686139 37.2586 0.398527 35.3595 0.80456C33.4604 1.21059 31.7249 2.28927 30.4042 3.88426L2.49471 37.3661C1.16777 38.9537 0.320903 40.9764 0.0761639 43.1427C-0.168575 45.309 0.201364 47.5072 1.13278 49.4206C1.13278 49.4206 8.96263 65.4873 9.40779 66.4861C9.70682 66.8994 10.1243 67.1815 10.588 67.2836C11.0517 67.3857 11.5322 67.3012 11.9467 67.0449C12.2809 66.8407 12.5555 66.5315 12.7372 66.1544C12.919 65.7773 13.0001 65.3487 12.9707 64.9206L11.3417 61.5536L9.86928 58.5199L4.45981 47.3654C3.91428 46.2464 3.6976 44.9603 3.84073 43.693C3.98386 42.4256 4.47945 41.2424 5.2562 40.3141L13.7224 30.1492L15.6893 27.7938L33.1657 6.82476C33.9406 5.89455 34.9564 5.26556 36.0671 5.02821C37.1778 4.79085 38.3265 4.95713 39.3484 5.50339L76.1464 25.1533C77.1707 25.695 78.0157 26.5909 78.5595 27.7114C79.1034 28.832 79.3179 30.1191 79.1718 31.3864L74.0113 77.0145C73.8696 78.2835 73.3752 79.4689 72.5992 80.3999C71.8232 81.3309 70.8056 81.9592 69.6932 82.1946L40.5208 88.4223L33.3092 89.9652C33.2631 90.0099 33.217 90.0547 33.1758 90.0901L27.0919 91.3944C26.7205 91.4739 26.3924 91.7168 26.1794 92.0697C25.9664 92.4226 25.886 92.8567 25.956 93.2765L26.0284 93.6884Z" fill="#007BEA"/>
<path d="M22.9569 40.5322C22.5476 41.6623 21.9356 42.6841 21.1595 43.5337C20.3834 44.3832 19.4599 45.0419 18.4475 45.4683C19.7698 45.4389 21.0723 45.8338 22.204 46.6072C23.3357 47.3807 24.2502 48.5009 24.8413 49.838C26.7176 54.4388 29.4132 62.7628 29.5418 67.8108C29.6704 72.8588 28.912 77.6554 25.8321 79.8598C27.2754 79.4177 28.5816 78.531 29.605 77.2987C30.6283 76.0665 31.3284 74.5372 31.6274 72.8813L35.2547 74.3141L36.0395 79.0007C36.1944 77.3044 36.4573 75.6231 36.826 73.9695C37.065 73.8447 37.4936 73.6806 37.4936 73.6806C37.4936 73.6806 40.2553 78.8982 42.8982 79.1442C45.5411 79.3902 48.7395 76.7216 50.6042 73.0824C50.6042 73.0824 53.8258 70.2221 53.3279 69.9613C52.83 69.7004 49.516 73.1197 49.516 73.1197C49.516 73.1197 44.6985 77.0683 42.5337 76.5745C40.3689 76.0807 39.2759 73.4459 40.5553 72.1434C41.8347 70.8408 49.1666 64.4902 49.1666 64.4902C49.1666 64.4902 39.4392 71.6477 37.1096 71.7762C36.5436 71.809 35.9816 71.6512 35.495 71.3229C35.0085 70.9946 34.6191 70.5105 34.376 69.9319C34.133 69.3533 34.0472 68.7063 34.1297 68.0726C34.2122 67.4389 34.459 66.8472 34.8391 66.3723C36.5439 63.7262 46.0061 57.657 46.0061 57.657C46.0061 57.657 34.2885 66.1952 32.5194 64.956C30.7503 63.7169 28.8592 60.5901 32.0479 57.48C35.2365 54.37 41.528 49.568 41.528 49.568C41.528 49.568 31.0932 57.6105 29.3274 56.8111C27.5616 56.0116 25.303 50.9672 27.664 49.1876C32.3315 45.6695 32.5721 43.5378 32.5721 43.5378C32.5721 43.5378 27.7761 48.3828 26.4456 47.2032C25.1151 46.0237 23.1119 42.6192 23.3263 41.175C23.4864 39.6119 23.4864 38.033 23.3263 36.4698C23.3629 37.8365 23.2387 39.2026 22.9569 40.5322Z" fill="black"/>
<path d="M14.7429 74.3514C16.5696 78.7246 19.7744 82.1701 23.7302 84.0134C21.1638 83.7059 18.7447 82.5073 16.8054 80.5827C15.5458 78.8085 14.823 76.6244 14.7429 74.3514Z" fill="black"/>
<path d="M54.881 71.4184C52.6041 75.9335 50.3009 80.1934 47.1485 82.655C45.8032 83.7003 43.0629 86.1358 40.5156 88.4315C37.6683 91.0124 35.0748 93.4068 35.0287 93.4516L34.6891 93.7684L28.3563 95.1212C27.6193 95.097 27.3375 94.5734 26.6351 94.3405C26.5692 93.9455 26.1404 93.9678 26.2014 93.5858L33.934 91.933C33.934 91.933 35.182 90.7756 36.9098 89.2029C39.8858 86.473 44.3029 82.4947 46.1593 81.0431C49.1023 78.7567 51.3198 74.5322 53.3757 70.4569C53.6528 69.9191 53.8299 69.323 53.896 68.7052C53.9621 68.0874 53.9159 67.4608 53.7603 66.8638C53.6048 66.2669 53.343 65.7122 52.9911 65.2335C52.6392 64.7549 52.2045 64.3625 51.7137 64.0803C51.9173 62.2945 51.7819 60.4803 51.3164 58.7584C50.5448 56.4999 47.6547 56.1496 47.6547 56.1496C48.2036 54.6866 48.2431 53.0432 47.7652 51.5488C46.9524 49.0443 43.2427 48.4518 43.2427 48.4518C43.2427 48.4518 44.1858 47.0374 42.3145 42.9118C40.4432 38.7861 36.2537 40.0123 34.5374 41.3484C32.8211 42.6844 29.1429 45.8504 27.6293 46.7244C26.1158 47.5983 23.74 42.1495 23.74 42.1495C23.74 42.1495 25.3376 40.0383 24.1604 33.5573C22.9832 27.0763 15.4402 29.9105 15.4402 29.9105L15.7123 35.0331L13.1964 40.9774C13.1964 40.9774 12.9885 43.2359 12.4708 47.1491C12.1592 49.4839 11.6729 56.39 11.3333 61.5536C11.147 64.3058 10.9178 65.245 10.87 66.0668L10.2368 66.0183L9.7059 65.9846C9.7059 65.9846 9.65149 61.9224 9.86087 58.5198C10.1412 53.9264 10.4892 48.8635 10.7547 46.8529C11.2592 43.0403 11.4701 40.7967 11.4718 40.7706L11.5013 40.4333L13.9581 34.6567L13.714 30.1567L13.6267 28.528L14.8978 28.0546C14.9984 28.0155 15.2753 27.913 15.6809 27.8012C18.0939 27.0052 20.6805 27.2264 22.9601 28.4236C23.7181 28.932 24.3693 29.6203 24.8688 30.441C25.3684 31.2617 25.7045 32.1954 25.8536 33.1772C26.5806 36.1231 26.5268 39.2454 25.6986 42.157C26.1388 43.0708 26.6728 43.9228 27.2896 44.6951C28.6086 43.7858 32.7007 40.4315 33.1294 40.0886C33.1519 40.0647 33.1775 40.0447 33.2052 40.029L33.6454 39.7161C33.8226 39.5873 34.0124 39.4821 34.2109 39.4028C37.0138 38.2848 41.9105 37.696 43.8626 42.0303C44.6218 43.5525 45.0786 45.2432 45.2013 46.9851C46.1129 47.2415 46.9623 47.7246 47.6879 48.399C48.4135 49.0734 48.9969 49.9221 49.3956 50.8834C49.7946 52.1206 49.9241 53.4482 49.7732 54.7538C50.476 55.0238 51.1208 55.4578 51.6656 56.0276C52.2104 56.5975 52.6431 57.2904 52.9356 58.0614C53.4251 59.6952 53.625 61.4218 53.5241 63.1429C54.4755 64.0092 55.176 65.1774 55.5354 66.4971C55.7277 67.3247 55.7689 68.1878 55.6564 69.0339C55.5439 69.88 55.28 70.6914 54.881 71.4184Z" fill="#007BEA"/>
<path d="M31.5038 29.7243L42.7861 17.092L33.5845 31.7163C33.4736 31.8861 33.3332 32.0285 33.1719 32.1346C33.0105 32.2407 32.8316 32.3084 32.6462 32.3334C32.4608 32.3584 32.273 32.34 32.0941 32.2797C31.9152 32.2194 31.7491 32.1185 31.6061 31.9829C31.4623 31.8464 31.3449 31.6778 31.2613 31.4879C31.1777 31.2979 31.1296 31.0906 31.12 30.8787C31.1104 30.6668 31.1395 30.455 31.2056 30.2564C31.2716 30.0578 31.3731 29.8766 31.5038 29.7243Z" fill="#007BEA"/>
<path d="M40.0425 39.6638L54.7162 22.9564L42.5536 42.0732L40.0425 39.6638Z" fill="#007BEA"/>
<path d="M52.258 51.4537L69.9784 30.3186L54.3732 53.4866C54.2589 53.6565 54.1152 53.7983 53.9508 53.9033C53.7864 54.0083 53.6046 54.0745 53.4169 54.0975C53.2291 54.1206 53.0391 54.1 52.8586 54.0373C52.678 53.9745 52.5106 53.8709 52.3667 53.7327C52.2226 53.5945 52.1051 53.4243 52.0211 53.2329C51.9371 53.0416 51.8884 52.833 51.8782 52.6197C51.868 52.4064 51.8965 52.1928 51.9617 51.9923C52.027 51.7918 52.1279 51.6086 52.258 51.4537Z" fill="#007BEA"/>
</g>
<defs>
<clipPath id="clip0">
<rect width="83" height="94.5" fill="white" transform="translate(0 0.625)"/>
</clipPath>
</defs>
</svg>
