<svg width="90" height="39" viewBox="0 0 90 39" fill="none" xmlns="http://www.w3.org/2000/svg">
<path d="M69.2873 25.4699L69.5348 24.4128H71.5411V32.3726C71.5411 33.9271 71.1093 35.0152 70.0906 35.8235C69.3194 36.4143 68.269 36.8492 67.004 36.8492C65.2752 36.8492 64.0406 36.2584 63.0531 35.2947L64.3189 33.5223C64.9362 34.1131 65.7694 34.6419 66.8497 34.6419C68.5473 34.6419 69.2877 33.8022 69.2877 32.5586V31.9678C68.6093 32.683 67.8069 32.9625 66.9117 32.9625C64.5656 32.9625 62.7137 31.0347 62.7137 28.5789C62.7137 26.1533 64.6276 24.2883 66.9733 24.2883C67.93 24.2887 68.794 24.7547 69.2873 25.4699ZM67.2511 26.372C66.0477 26.372 65.0901 27.3043 65.0901 28.5789C65.0901 29.7915 66.0477 30.7552 67.2511 30.7552C68.4545 30.7552 69.4113 29.7915 69.4113 28.5789C69.4113 27.3043 68.4545 26.372 67.2511 26.372ZM54.1945 12.5361C53.2373 12.5361 52.4345 13.0959 52.2498 13.9976H56.0768C55.8921 13.1269 55.1209 12.5361 54.1945 12.5361ZM54.3181 19.2829C51.7565 19.2829 49.8734 17.5109 49.8734 14.9303C49.8734 12.5981 51.571 10.5152 54.2565 10.5152C56.2628 10.5152 58.331 12.0383 58.331 14.8678C58.331 15.0853 58.331 15.3656 58.2694 15.6761H52.2195C52.4349 16.6088 53.269 17.2315 54.2873 17.2315C55.2132 17.2315 55.9233 16.8891 56.5098 16.2669L57.8988 17.697C57.004 18.7231 55.7074 19.2829 54.3181 19.2829ZM79.9675 12.5361C79.0107 12.5361 78.2088 13.0959 78.0228 13.9976H81.8502C81.6655 13.1269 80.8934 12.5361 79.9675 12.5361ZM80.0915 19.2829C77.5299 19.2829 75.6468 17.5109 75.6468 14.9303C75.6468 12.5981 77.3444 10.5152 80.0299 10.5152C82.0361 10.5152 84.1044 12.0383 84.1044 14.8678C84.1044 15.0853 84.1044 15.3656 84.0428 15.6761H77.9924C78.2092 16.6088 79.0424 17.2315 80.0607 17.2315C80.9862 17.2315 81.6963 16.8891 82.2832 16.2669L83.6717 17.697C82.7766 18.7231 81.48 19.2829 80.0915 19.2829ZM85.8631 26.2161C84.9063 26.2161 84.1039 26.7759 83.9188 27.6776H87.7462C87.5607 26.8069 86.789 26.2161 85.8631 26.2161ZM85.9866 32.9625C83.4242 32.9625 81.5419 31.1906 81.5419 28.6099C81.5419 26.2777 83.2395 24.1949 85.9251 24.1949C87.9313 24.1949 90 25.7179 90 28.5475C90 28.7649 90 29.0452 89.9371 29.3557H83.8881C84.1039 30.2884 84.9376 30.9102 85.9559 30.9102C86.8818 30.9102 87.5919 30.5683 88.1784 29.9465L89.5669 31.3766C88.6717 32.4032 87.376 32.9625 85.9866 32.9625ZM48.021 26.2161C47.0638 26.2161 46.2619 26.7759 46.0763 27.6776H49.9037C49.719 26.8069 48.9474 26.2161 48.021 26.2161ZM48.1446 32.9625C45.583 32.9625 43.6999 31.1906 43.6999 28.6099C43.6999 26.2777 45.397 24.1949 48.0821 24.1949C50.0888 24.1949 52.1571 25.7179 52.1571 28.5475C52.1571 28.7649 52.1571 29.0452 52.0955 29.3557H46.0451C46.2614 30.2884 47.0955 30.9102 48.1138 30.9102C49.0393 30.9102 49.7489 30.5683 50.3364 29.9465L51.7249 31.3766C50.8301 32.4032 49.5339 32.9625 48.1446 32.9625ZM35.459 32.7451V20.4021H37.897V30.4133H43.2061V32.7451H35.459ZM44.7494 19.0654V10.7327H46.7249L46.9724 11.9453C47.3422 11.1676 48.0826 10.6397 49.071 10.6397C49.2868 10.6397 49.5027 10.6703 49.7191 10.7327V12.94C49.4407 12.878 49.195 12.8466 48.9166 12.8466C47.8056 12.8466 47.0339 13.5308 47.0339 14.8674V19.065L44.7494 19.0654ZM84.9991 19.0654V10.7327H86.9741L87.2212 11.9453C87.5919 11.1676 88.3323 10.6397 89.3203 10.6397C89.5366 10.6397 89.752 10.6703 89.9688 10.7327V12.94C89.6905 12.878 89.4443 12.8466 89.1659 12.8466C88.0549 12.8466 87.2837 13.5308 87.2837 14.8674V19.065L84.9991 19.0654ZM69.0411 14.1526C69.0411 13.2509 68.5473 12.6911 67.7752 12.6911C66.8805 12.6911 66.4175 13.2509 66.4175 14.184V19.065H64.1334V14.1526C64.1334 13.2509 63.6396 12.6911 62.868 12.6911C61.9728 12.6911 61.5098 13.2509 61.5098 14.184V19.065H59.2257V10.7327H61.232L61.4795 11.8209C61.4795 11.8209 61.9733 10.5152 63.5165 10.5152C64.4742 10.5152 65.2761 10.9192 65.8319 11.7593L65.8939 11.8523L65.9559 11.7593C66.7587 10.6087 67.7462 10.5152 68.3635 10.5152C70.1227 10.5152 71.3265 11.8523 71.3265 13.7487V19.0654H69.0424V14.1526H69.0411ZM73.6401 9.61399C72.8377 9.61399 72.2204 8.99175 72.2204 8.2145C72.2204 7.40624 72.8377 6.78444 73.6401 6.78444C74.4425 6.78444 75.0598 7.4058 75.0598 8.2145C75.0598 8.9913 74.4425 9.61399 73.6401 9.61399ZM72.4675 10.7327H74.7511V19.0646H72.4675V10.7327ZM57.4969 26.372C56.2619 26.372 55.3368 27.3043 55.3368 28.5789C55.3368 29.7915 56.2619 30.7552 57.4969 30.7552C58.7008 30.7552 59.6267 29.7915 59.6267 28.5789C59.6267 27.3043 58.7008 26.372 57.4969 26.372ZM57.0339 32.9625C54.8426 32.9625 52.9291 30.9417 52.9291 28.5789C52.9291 26.2472 54.8426 24.2883 57.0339 24.2883C58.269 24.2883 59.1017 24.7232 59.5959 25.5005L59.843 24.4123H61.8493V32.7446H59.843L59.5959 31.687C59.1017 32.4342 58.1762 32.9625 57.0339 32.9625ZM76.6958 32.9625C74.8747 32.9625 72.653 31.9678 72.653 28.8588V24.4123H74.9362V28.7029C74.9362 30.133 75.5852 30.7548 76.6958 30.7548C77.7141 30.7548 78.4554 30.04 78.4554 28.7029V24.4123H80.7395V28.8588C80.7395 31.9678 78.4862 32.9625 76.6958 32.9625ZM37.897 12.5675H39.3172C40.5522 12.5675 41.447 11.8837 41.447 10.6397C41.447 9.39521 40.5522 8.74285 39.3172 8.74285H37.897V12.5675ZM35.459 19.0654V6.4111H39.4403C42.0331 6.4111 43.9778 7.9656 43.9778 10.6397C43.9778 13.3443 42.0638 14.9303 39.4403 14.9303H37.897V19.0654H35.459ZM26.7256 17.4701C25.897 18.154 25.1945 18.5353 25.1945 18.5353L25.2041 20.7033C25.7964 21.3528 26.3808 21.8909 26.8181 22.8714C27.6484 21.403 27.4887 19.2444 26.7256 17.4701ZM26.0518 24.5673C26.0518 24.5673 25.8827 23.6731 25.1626 22.8385L23.5198 22.8777C23.5198 22.8777 21.3054 24.7477 19.9548 24.7916C19.9548 24.7916 20.6987 26.1518 21.0755 26.8624C21.8179 26.7024 23.1254 26.1266 23.6523 25.5242C23.6523 25.5242 24.0004 26.6271 23.9349 27.9292C24.6741 27.5088 25.6926 26.3666 26.0518 24.5673ZM23.9349 20.6516L23.9318 18.4913C23.9318 18.4913 22.9499 18.1823 21.9026 17.3838C19.7984 17.696 17.2504 19.7762 17.2504 19.7762C17.2504 19.7762 18.1109 21.3811 19.0528 23.113C20.7085 23.3405 23.1478 21.2854 23.9349 20.6516ZM29.5467 29.647L28.1928 28.1739C27.8065 32.1555 25.822 35.5362 22.1772 37.8942L21.62 35.7465C18.526 37.9428 13.2159 39.3672 8.65468 36.8321C9.22142 33.9925 9.72437 31.1154 8.64509 27.6703C6.11942 31.5139 3.88428 33.0199 3.88428 33.0199C2.17759 30.204 2.3309 24.5547 2.84018 22.8918L0 23.7562C0 21.858 1.39056 17.8309 3.40538 15.5687L1.63164 15.2895H1.62988C2.83525 12.8688 4.63454 10.7823 6.83609 9.21509L6.83917 9.21332C6.17825 10.2393 6.16866 12.7714 8.10526 13.7346C7.28306 12.318 7.18405 10.5672 8.043 9.6604C8.90191 8.74586 10.3468 9.0596 11.2695 9.76869C10.9949 8.97802 10.1903 7.9834 8.98496 7.91595H8.9832C11.2598 6.76447 13.8446 6.11654 16.5794 6.11654C17.0903 6.11654 17.5996 6.13851 18.0977 6.18244C18.8928 6.49617 20.0598 7.59743 20.6042 8.28301C20.6042 8.28301 20.6425 7.47511 20.1859 6.49932C23.1475 7.20841 24.5604 8.39284 25.1527 8.96389C25.274 10.2221 25.6572 10.9766 26.1633 12.1721C25.2038 11.1163 22.793 9.41253 21.6419 9.00463C21.6419 9.00463 21.5478 10.095 21.1518 10.6189C18.8592 8.9937 17.7337 8.58426 17.7337 8.58426C15.2176 8.93878 13.5987 9.8926 12.719 10.6425L13.4854 11.2841C11.9687 11.7422 10.9836 13.0223 10.9836 13.0223C10.9948 13.0459 12.339 13.2341 12.339 13.2341C12.339 13.2341 12.2017 14.7857 14.1782 15.7583C15.8721 16.5914 18.3068 15.5575 20.5994 16.4611C19.0923 14.7512 18.0498 13.9871 18.0498 13.9871C18.0498 13.9871 17.4511 13.8648 17.0296 13.8679C16.5028 13.871 15.7173 13.973 14.8568 13.6436C14.4449 13.4851 13.9643 13.2059 13.5875 12.9737C13.5875 12.9737 14.646 11.9054 16.1931 11.6701C16.1931 11.6701 17.5884 12.056 18.6932 12.8592C19.4276 12.1564 20.1939 12.1783 20.1939 12.1783C20.1939 12.1783 19.434 12.8749 19.6639 13.7189C20.7671 14.6853 21.9644 16.0689 21.9644 16.0689C23.1842 15.4132 25.836 15.5638 26.3804 16.185C25.6907 15.3049 24.6961 14.5707 23.9266 13.9432C23.8323 13.6138 22.9926 12.4654 22.8505 12.3588C22.8505 12.3588 23.6488 12.6004 24.3624 13.2295C24.5668 12.9423 24.9499 12.6505 25.472 12.5219C26.0084 12.9643 26.1042 13.6436 26.0898 13.7565C25.8488 14.0405 25.6093 14.1566 25.6093 14.1566L26.9025 15.5324L27.0318 14.5457C30.0109 18.7265 31.6349 23.5648 29.5467 29.647ZM6.02005 3.18779C7.73791 3.96119 8.8411 4.93698 9.0423 5.08601C8.95128 4.64991 8.61282 2.55084 8.41804 1.24719C9.41906 1.92962 11.742 3.5141 12.5067 4.02864C12.818 3.0858 13.8973 0.00628886 13.8973 0.00628886C13.8973 0.00628886 15.8482 3.10936 16.1819 3.61291C16.589 3.19408 18.9199 0.644741 19.5234 0C19.624 1.46681 19.7613 3.56428 19.7964 3.87961C19.9129 3.72429 20.8054 2.49438 22.3014 1.36172C21.6532 2.61674 21.3434 4.34871 21.2061 5.74018C19.7342 5.33703 18.1807 5.12055 16.581 5.12055C13.5077 5.12055 10.6212 5.91432 8.12588 7.30899C7.67249 5.96455 6.96206 4.29219 6.02005 3.18779Z" fill="#3D195B"/>
</svg>
